<svg width="20" height="20" viewBox="0 0 20 20" fill="none" xmlns="http://www.w3.org/2000/svg">
<path fill-rule="evenodd" clip-rule="evenodd" d="M11 2H13C13.5523 2 14 2.44772 14 3V5.17071C14.3128 5.06015 14.6494 5 15 5V3C15 1.89543 14.1046 1 13 1H10.8293C10.9398 1.31278 11 1.64936 11 2ZM15 11C14.6494 11 14.3128 10.9398 14 10.8293V13C14 13.5523 13.5523 14 13 14H10.8293C10.9398 14.3128 11 14.6494 11 15H13C14.1046 15 15 14.1046 15 13V11ZM5.17071 1H3C1.89543 1 1 1.89543 1 3V5.17071C1.31278 5.06015 1.64936 5 2 5V3C2 2.44772 2.44772 2 3 2H5C5 1.64936 5.06015 1.31278 5.17071 1ZM1 13V10.8293C1.31278 10.9398 1.64936 11 2 11V13C2 13.5523 2.44772 14 3 14H5.17071C5.06015 14.3128 5 14.6494 5 15H3C1.89543 15 1 14.1046 1 13Z" fill="#90A4AE"/>
<path fill-rule="evenodd" clip-rule="evenodd" d="M5.17071 14C5.06016 14.3127 5 14.6493 5 15C5 16.6568 6.34315 18 8 18C9.65685 18 11 16.6568 11 15C11 14.6493 10.9398 14.3127 10.8293 14H9.73242C9.9026 14.2941 10 14.6357 10 15C10 16.1045 9.10457 17 8 17C6.89543 17 6 16.1045 6 15C6 14.6357 6.0974 14.2941 6.26758 14H5.17071Z" fill="#90A4AE"/>
<path fill-rule="evenodd" clip-rule="evenodd" d="M11 1.99998C11 3.65684 9.65685 4.99998 8 4.99998C6.34315 4.99998 5 3.65684 5 1.99998C5 1.64935 5.06015 1.31276 5.17071 0.999985H6.26756C6.09739 1.29416 6 1.6357 6 1.99998C6 3.10455 6.89543 3.99998 8 3.99998C9.10457 3.99998 10 3.10455 10 1.99998C10 1.6357 9.90261 1.29416 9.73244 0.999985H10.8293C10.9398 1.31276 11 1.64935 11 1.99998Z" fill="#90A4AE"/>
<path fill-rule="evenodd" clip-rule="evenodd" d="M1 10.8293C1.31278 10.9398 1.64936 11 2 11C3.65685 11 5 9.65685 5 8C5 6.34315 3.65685 5 2 5C1.64936 5 1.31278 5.06015 1 5.17071V6.26756C1.29417 6.09739 1.63571 6 2 6C3.10457 6 4 6.89543 4 8C4 9.10457 3.10457 10 2 10C1.63571 10 1.29417 9.90261 1 9.73244V10.8293Z" fill="#90A4AE"/>
<path fill-rule="evenodd" clip-rule="evenodd" d="M14 10.8293C14.3128 10.9398 14.6494 11 15 11C16.6569 11 18 9.65685 18 8C18 6.34315 16.6569 5 15 5C14.6494 5 14.3128 5.06015 14 5.17071V6.26756C14.2942 6.09739 14.6357 6 15 6C16.1046 6 17 6.89543 17 8C17 9.10457 16.1046 10 15 10C14.6357 10 14.2942 9.90261 14 9.73244V10.8293Z" fill="#90A4AE"/>
</svg>
