<svg width="20" height="20" viewBox="0 0 20 20" fill="none" xmlns="http://www.w3.org/2000/svg">
<path d="M17.3999 20H2.63052C2.33052 20 2.03052 19.7 2.03052 19.4V0.600006C2.03052 0.300006 2.33052 0 2.63052 0H13.8999C14.1999 0 14.274 0.0442007 14.3972 0.18629C14.4638 0.263199 14.5253 0.309343 14.5999 0.399994L17.5999 3.19998C17.6999 3.29998 17.6999 3.29999 17.7999 3.39999C17.8999 3.49999 17.9999 3.69999 17.9999 3.89999V19.4C17.9999 19.7 17.6999 20 17.3999 20ZM13.9999 0.899994V4H16.8999L13.9999 0.899994ZM16.9999 4.89999H13.8999C13.2999 4.89999 12.9999 4.49999 12.9999 3.89999V0.899994H3.03052V19H16.9999V4.89999ZM11.7999 7H14.4999C14.7999 7 14.9999 7.2 14.9999 7.5C14.9999 7.8 14.7999 8 14.4999 8H11.7999C11.4999 8 11.2999 7.8 11.2999 7.5C11.2999 7.2 11.4999 7 11.7999 7ZM11.7999 10H14.4999C14.7999 10 14.9999 10.2 14.9999 10.5C14.9999 10.8 14.7999 11 14.4999 11H11.7999C11.4999 11 11.2999 10.8 11.2999 10.5C11.2999 10.2 11.4999 10 11.7999 10ZM11.7999 13H14.4999C14.7999 13 14.9999 13.2 14.9999 13.5C14.9999 13.8 14.7999 14 14.4999 14H11.7999C11.4999 14 11.2999 13.8 11.2999 13.5C11.2999 13.2 11.4999 13 11.7999 13ZM5.53052 16H14.4999C14.7999 16 14.9999 16.2 14.9999 16.5C14.9999 16.8 14.7999 17 14.4999 17H5.53052C5.23052 17 5.03052 16.8 5.03052 16.5C5.03052 16.2 5.23052 16 5.53052 16Z" fill="#37474F"/>
<path d="M7 3H8V5.04593C8.87695 5.18106 10 5.68438 10 7.4192H9.04968L9.04855 7.4027C9.04797 7.39428 9.04739 7.38572 9.04681 7.37704C9.01387 6.88928 8.95316 5.99005 7.55823 5.99005C6.44592 5.99005 6.01514 6.44 6.01514 6.9776C6.01514 7.81011 6.54652 8.0788 7.28585 8.45263C7.33086 8.47538 7.37665 8.49853 7.42313 8.52222L7.50853 8.56631L7.9362 8.77462C9.0701 9.31222 9.99997 9.7744 9.99997 10.984C9.99997 12.1195 9.13726 12.848 8 12.9788V15H7V12.9541C6.12305 12.8189 5 12.3156 5 10.5808H5.95032L5.95145 10.5973C5.98439 11.0784 6.20441 12.0296 7.62418 12.0296C8.73648 12.0296 8.98486 11.56 8.98486 11.0224C8.98486 10.2103 8.46352 9.94899 7.74998 9.5913C7.68748 9.55996 7.62346 9.52787 7.55823 9.49462L7.47283 9.45055L7.04516 9.24223C5.91126 8.70463 5.00003 8.2256 5.00003 7.016C5.00003 5.88055 5.86274 5.15203 7 5.02123V3Z" fill="#37474F"/>
</svg>
