<svg width="20" height="20" viewBox="0 0 20 20" fill="none" xmlns="http://www.w3.org/2000/svg">
<g clip-path="url(#clip0_72820_12645)">
<rect width="20" height="20" rx="2" fill="white"/>
<path fill-rule="evenodd" clip-rule="evenodd" d="M5.02017 10.4801C4.755 10.215 4.755 9.78505 5.02017 9.51989L9.34118 5.19888C9.60634 4.93371 10.0362 4.93371 10.3014 5.19888C10.5666 5.46403 10.5666 5.89394 10.3014 6.15909L6.4605 10L10.3014 13.8409C10.5666 14.1061 10.5666 14.536 10.3014 14.8011C10.0362 15.0663 9.60634 15.0663 9.34118 14.8011L5.02017 10.4801ZM14.0199 14.8011L9.69888 10.4801C9.43371 10.215 9.43371 9.78505 9.69888 9.51989L14.0199 5.19888C14.285 4.93371 14.715 4.93371 14.9801 5.19888C15.2453 5.46403 15.2453 5.89394 14.9801 6.15909L11.1392 10L14.9801 13.8409C15.2453 14.1061 15.2453 14.536 14.9801 14.8011C14.715 15.0663 14.285 15.0663 14.0199 14.8011Z" fill="#90A4AE"/>
</g>
<defs>
<clipPath id="clip0_72820_12645">
<rect width="20" height="20" rx="2" fill="white"/>
</clipPath>
</defs>
</svg>
