<svg width="12" height="10" viewBox="0 0 12 10" fill="none" xmlns="http://www.w3.org/2000/svg">
<path fill-rule="evenodd" clip-rule="evenodd" d="M1.98026 0.198869L6.30127 4.51989C6.56644 4.78505 6.56644 5.21495 6.30127 5.48011L1.98026 9.80112C1.7151 10.0663 1.28519 10.0663 1.02004 9.80112C0.754877 9.53597 0.754877 9.10606 1.02004 8.84091L4.86093 5L1.02004 1.15909C0.754877 0.893936 0.754877 0.464028 1.02004 0.198869C1.28519 -0.0662897 1.7151 -0.0662897 1.98026 0.198869ZM6.65897 0.198869L10.98 4.51989C11.2452 4.78505 11.2452 5.21495 10.98 5.48011L6.65897 9.80112C6.39381 10.0663 5.96391 10.0663 5.69875 9.80112C5.43359 9.53597 5.43359 9.10606 5.69875 8.84091L9.53965 5L5.69875 1.15909C5.43359 0.893936 5.43359 0.464028 5.69875 0.198869C5.96391 -0.0662897 6.39381 -0.0662897 6.65897 0.198869Z" fill="#90A4AE"/>
</svg>
